<svg width="62" height="62" viewBox="0 0 62 62" fill="none" xmlns="http://www.w3.org/2000/svg">
<g clip-path="url(#clip0_155_2)">
<path d="M29.792 16.392C29.792 16.344 29.792 16.2 29.792 16.2H27.56L21.44 26.832L14.552 16.2H12.392L13.472 17.688V30.12C13.472 31.152 12.752 32.424 11.96 32.832C11.96 32.88 11.96 33 11.96 33H15.176C15.176 33 15.176 32.88 15.176 32.832C14.384 32.424 13.664 31.152 13.664 30.12V17.928L20.528 28.392H20.744L27.368 16.92V31.416C27.368 32.256 27.176 32.616 26.816 32.832C26.816 32.88 26.816 33 26.816 33H29.792C29.792 33 29.792 32.88 29.792 32.832C29.408 32.616 29.24 32.256 29.24 31.416V17.808C29.24 16.944 29.408 16.608 29.792 16.392Z" fill="#F0E8E0"/>
<path d="M49.792 29.392C49.792 29.344 49.792 29.2 49.792 29.2H47.56L41.44 39.832L34.552 29.2H32.392L33.472 30.688V43.12C33.472 44.152 32.752 45.424 31.96 45.832C31.96 45.88 31.96 46 31.96 46H35.176C35.176 46 35.176 45.88 35.176 45.832C34.384 45.424 33.664 44.152 33.664 43.12V30.928L40.528 41.392H40.744L47.368 29.92V44.416C47.368 45.256 47.176 45.616 46.816 45.832C46.816 45.88 46.816 46 46.816 46H49.792C49.792 46 49.792 45.88 49.792 45.832C49.408 45.616 49.24 45.256 49.24 44.416V30.808C49.24 29.944 49.408 29.608 49.792 29.392Z" fill="#F0E8E0"/>
<path d="M31 58C45.9117 58 58 45.9117 58 31C58 16.0883 45.9117 4 31 4C16.0883 4 4 16.0883 4 31C4 45.9117 16.0883 58 31 58Z" stroke="#F0E8E0" stroke-width="0.5" stroke-linecap="square"/>
<path d="M31 61C47.5685 61 61 47.5685 61 31C61 14.4315 47.5685 1 31 1C14.4315 1 1 14.4315 1 31C1 47.5685 14.4315 61 31 61Z" stroke="#F0E8E0" stroke-width="0.5" stroke-linecap="square"/>
<path d="M41 17L42.0804 19.9196L45 21L42.0804 22.0804L41 25L39.9196 22.0804L37 21L39.9196 19.9196L41 17Z" fill="#F0E8E0"/>
<path d="M21 37L22.0804 39.9196L25 41L22.0804 42.0804L21 45L19.9196 42.0804L17 41L19.9196 39.9196L21 37Z" fill="#F0E8E0"/>
</g>
<defs>
<clipPath id="clip0_155_2">
<rect width="62" height="62" fill="white"/>
</clipPath>
</defs>
</svg>
