<svg width="612" height="82" viewBox="0 0 612 82" fill="none" xmlns="http://www.w3.org/2000/svg">
<path d="M47.48 14.864C46.968 15.12 46.424 15.44 45.848 15.824C45.272 16.208 44.76 16.656 44.312 17.168C43.864 17.616 43.512 18.16 43.256 18.8C43.064 19.376 43.064 19.984 43.256 20.624C43.576 21.52 44.184 22.288 45.08 22.928C46.168 23.76 47.704 24.432 49.688 24.944C51.736 25.392 54.328 25.616 57.464 25.616C61.496 25.616 64.984 25.104 67.928 24.08C70.936 23.056 73.272 21.776 74.936 20.24C76.664 18.704 77.656 17.072 77.912 15.344C78.232 13.552 77.72 11.92 76.376 10.448C75.096 8.912 72.92 7.664 69.848 6.704C66.84 5.744 62.84 5.328 57.848 5.456C55.224 5.52 52.344 5.904 49.208 6.608C46.072 7.248 42.968 8.112 39.896 9.2C36.824 10.224 33.912 11.44 31.16 12.848C28.472 14.256 26.168 15.728 24.248 17.264C22.328 18.8 20.984 20.368 20.216 21.968C19.448 23.504 19.48 25.008 20.312 26.48C21.208 27.888 23.032 29.2 25.784 30.416C28.6 31.632 32.632 32.624 37.88 33.392C41.592 33.968 44.696 34.736 47.192 35.696C49.752 36.656 51.8 37.744 53.336 38.96C54.872 40.112 55.96 41.328 56.6 42.608C57.24 43.888 57.56 45.136 57.56 46.352C59.352 46.864 60.824 47.504 61.976 48.272C63.192 49.04 63.96 49.968 64.28 51.056C64.408 51.312 64.376 51.472 64.184 51.536C63.992 51.664 63.832 51.568 63.704 51.248C63.384 50.224 62.68 49.392 61.592 48.752C60.504 48.048 59.16 47.472 57.56 47.024C57.304 49.328 56.312 51.632 54.584 53.936C52.856 56.304 50.648 58.48 47.96 60.464C45.336 62.512 42.36 64.272 39.032 65.744C35.704 67.216 32.344 68.24 28.952 68.816C22.296 69.968 16.856 70.352 12.632 69.968C8.472 69.584 5.368 68.72 3.32 67.376C1.336 66.096 0.344 64.464 0.344 62.48C0.344 60.56 1.176 58.608 2.84 56.624C4.504 54.64 6.936 52.784 10.136 51.056C13.4 49.328 17.272 47.984 21.752 47.024C23.032 46.768 25.016 46.448 27.704 46.064C30.392 45.68 33.368 45.392 36.632 45.2C39.96 45.008 43.352 44.944 46.808 45.008C50.264 45.072 53.4 45.392 56.216 45.968C56.024 43.536 54.456 41.296 51.512 39.248C48.632 37.2 43.864 35.664 37.208 34.64C31.896 33.872 27.768 32.848 24.824 31.568C21.944 30.288 19.96 28.912 18.872 27.44C17.848 25.904 17.656 24.304 18.296 22.64C18.936 20.976 20.152 19.312 21.944 17.648C23.8 15.984 26.104 14.416 28.856 12.944C31.608 11.472 34.584 10.16 37.784 9.008C41.048 7.792 44.408 6.832 47.864 6.128C51.32 5.424 54.648 5.04 57.848 4.976C62.904 4.848 66.968 5.296 70.04 6.32C73.176 7.344 75.416 8.656 76.76 10.256C78.168 11.792 78.712 13.488 78.392 15.344C78.072 17.2 77.048 18.928 75.32 20.528C73.656 22.128 71.288 23.472 68.216 24.56C65.208 25.648 61.624 26.192 57.464 26.192C54.2 26.192 51.544 25.936 49.496 25.424C47.448 24.848 45.88 24.144 44.792 23.312C43.768 22.544 43.096 21.712 42.776 20.816C42.584 20.112 42.584 19.408 42.776 18.704C43.032 18 43.384 17.36 43.832 16.784C44.344 16.208 44.888 15.696 45.464 15.248C46.04 14.736 46.616 14.352 47.192 14.096C47.576 13.904 47.8 13.936 47.864 14.192C47.992 14.448 47.864 14.672 47.48 14.864ZM28.856 68.336C31.8 67.824 34.872 66.832 38.072 65.36C41.336 63.888 44.312 62.128 47 60.08C49.688 58.032 51.896 55.824 53.624 53.456C55.352 51.088 56.216 48.784 56.216 46.544C53.528 45.968 50.456 45.648 47 45.584C43.544 45.52 40.152 45.584 36.824 45.776C33.496 45.968 30.456 46.256 27.704 46.64C25.016 46.96 23.064 47.248 21.848 47.504C17.496 48.4 13.72 49.68 10.52 51.344C7.384 53.072 4.984 54.896 3.32 56.816C1.656 58.736 0.824 60.624 0.824 62.48C0.824 64.336 1.816 65.872 3.8 67.088C5.784 68.304 8.824 69.072 12.92 69.392C17.016 69.776 22.328 69.424 28.856 68.336ZM104.3 40.88C104.492 40.752 104.62 40.752 104.684 40.88C104.812 41.008 104.748 41.136 104.492 41.264C102.828 42.544 100.876 43.792 98.636 45.008C96.396 46.16 94.156 46.736 91.916 46.736C89.868 46.736 88.268 46.352 87.116 45.584C86.028 47.12 84.62 48.464 82.892 49.616C81.164 50.768 79.276 51.344 77.228 51.344C75.884 51.344 74.892 51.024 74.252 50.384C73.548 49.744 73.164 48.944 73.1 47.984C72.972 47.024 73.132 45.968 73.58 44.816C73.964 43.664 74.54 42.608 75.308 41.648C76.012 40.688 76.908 39.888 77.996 39.248C79.084 38.608 80.236 38.288 81.452 38.288C82.348 38.288 82.956 38.544 83.276 39.056C83.596 39.568 83.5 40.144 82.988 40.784C82.796 41.104 82.54 41.232 82.22 41.168C81.964 41.04 81.996 40.816 82.316 40.496C82.764 40.048 82.892 39.664 82.7 39.344C82.572 38.96 82.156 38.768 81.452 38.768C80.044 38.768 78.732 39.408 77.516 40.688C76.3 41.904 75.404 43.28 74.828 44.816C74.188 46.352 74.028 47.76 74.348 49.04C74.604 50.256 75.564 50.864 77.228 50.864C79.212 50.864 81.004 50.32 82.604 49.232C84.268 48.144 85.644 46.864 86.732 45.392C85.836 44.688 85.228 43.888 84.908 42.992C84.588 42.032 84.492 41.104 84.62 40.208C84.812 39.184 85.196 38.416 85.772 37.904C86.348 37.392 86.924 37.136 87.5 37.136C88.14 37.136 88.652 37.392 89.036 37.904C89.484 38.416 89.644 39.184 89.516 40.208C89.388 41.104 89.1 42 88.652 42.896C88.268 43.792 87.916 44.496 87.596 45.008C88.62 45.84 90.06 46.256 91.916 46.256C94.092 46.256 96.268 45.68 98.444 44.528C100.684 43.312 102.636 42.096 104.3 40.88ZM85.772 40.208C85.644 40.912 85.676 41.68 85.868 42.512C86.06 43.344 86.508 44.08 87.212 44.72C87.468 44.272 87.788 43.632 88.172 42.8C88.62 41.968 88.908 41.104 89.036 40.208C89.164 39.44 89.068 38.864 88.748 38.48C88.492 38.032 88.14 37.776 87.692 37.712C87.308 37.648 86.924 37.808 86.54 38.192C86.156 38.576 85.9 39.248 85.772 40.208ZM138.183 40.88C138.439 40.752 138.599 40.752 138.663 40.88C138.791 41.008 138.727 41.136 138.471 41.264C135.591 43.376 132.711 45.072 129.831 46.352C127.015 47.568 123.815 48.464 120.231 49.04C116.455 49.616 113.127 49.584 110.247 48.944C110.247 51.056 109.895 53.456 109.191 56.144C108.487 58.832 107.495 61.552 106.215 64.304C104.935 66.992 103.463 69.552 101.799 71.984C100.071 74.416 98.2467 76.464 96.3267 78.128C95.0467 79.152 93.7667 79.952 92.4867 80.528C91.2067 81.104 89.9267 81.392 88.6467 81.392C86.0227 81.392 84.5187 80.368 84.1347 78.32C83.7507 76.336 84.1667 73.712 85.3827 70.448C86.5347 67.248 88.3907 63.568 90.9507 59.408C93.4467 55.312 96.2947 51.12 99.4947 46.832C102.695 42.48 106.087 38.256 109.671 34.16C113.255 30 116.711 26.32 120.039 23.12C123.431 19.856 126.535 17.232 129.351 15.248C132.231 13.264 134.535 12.272 136.263 12.272C137.543 12.272 138.407 12.592 138.855 13.232C139.367 13.872 139.591 14.64 139.527 15.536C139.463 16.432 139.239 17.392 138.855 18.416C138.535 19.376 138.215 20.176 137.895 20.816C136.615 23.44 134.663 25.808 132.039 27.92C129.415 29.968 126.535 31.824 123.399 33.488C120.263 35.088 117.095 36.496 113.895 37.712C110.759 38.928 108.039 39.952 105.735 40.784L105.543 40.88C103.047 44.016 100.647 47.184 98.3427 50.384C96.0387 53.584 93.9587 56.656 92.1027 59.6C90.2467 62.608 88.7107 65.392 87.4947 67.952C86.2147 70.576 85.3827 72.848 84.9987 74.768C84.5507 76.688 84.6147 78.192 85.1907 79.28C85.7027 80.368 86.8547 80.912 88.6467 80.912C89.9267 80.912 91.1747 80.624 92.3907 80.048C93.6067 79.472 94.8227 78.704 96.0387 77.744C97.8947 76.144 99.6547 74.128 101.319 71.696C102.983 69.328 104.455 66.8 105.735 64.112C107.015 61.36 108.007 58.64 108.711 55.952C109.415 53.328 109.767 50.992 109.767 48.944V48.848C109.063 48.592 108.359 48.336 107.655 48.08C107.015 47.76 106.439 47.376 105.927 46.928C105.031 46.224 104.583 45.552 104.583 44.912C104.583 44.208 104.807 43.664 105.255 43.28C105.703 42.896 106.279 42.704 106.983 42.704C107.687 42.704 108.295 43.024 108.807 43.664C109.767 44.752 110.247 46.352 110.247 48.464C111.655 48.784 113.191 48.976 114.855 49.04C116.583 49.04 118.343 48.88 120.135 48.56C123.719 47.984 126.919 47.088 129.735 45.872C132.615 44.592 135.431 42.928 138.183 40.88ZM106.599 46.544C107.111 46.928 107.591 47.28 108.039 47.6C108.487 47.856 109.063 48.08 109.767 48.272C109.703 46.48 109.223 45.104 108.327 44.144C108.007 43.76 107.655 43.6 107.271 43.664C106.951 43.728 106.663 43.92 106.407 44.24C106.151 44.496 105.991 44.848 105.927 45.296C105.927 45.68 106.151 46.096 106.599 46.544ZM136.263 12.752C134.919 12.816 133.127 13.616 130.887 15.152C128.711 16.624 126.247 18.608 123.495 21.104C120.807 23.6 117.959 26.512 114.951 29.84C111.943 33.104 108.999 36.528 106.119 40.112C108.295 39.344 110.919 38.384 113.991 37.232C117.063 36.016 120.135 34.608 123.207 33.008C126.279 31.408 129.095 29.584 131.655 27.536C134.215 25.488 136.135 23.216 137.415 20.72C137.671 20.144 137.991 19.408 138.375 18.512C138.759 17.616 138.983 16.752 139.047 15.92C139.175 15.024 139.047 14.288 138.663 13.712C138.279 13.072 137.479 12.752 136.263 12.752ZM173.467 25.808C173.979 26.064 174.171 26.32 174.043 26.576C173.915 26.768 173.627 26.768 173.179 26.576C171.963 25.936 170.203 25.52 167.899 25.328C165.659 25.072 163.099 24.976 160.219 25.04C158.363 26.768 156.347 28.56 154.171 30.416C152.059 32.208 149.979 33.872 147.931 35.408C145.947 36.88 144.123 38.128 142.459 39.152C140.859 40.176 139.675 40.816 138.907 41.072C138.203 43.504 138.267 45.552 139.099 47.216C139.931 48.88 141.915 49.712 145.051 49.712C146.587 49.712 148.251 49.424 150.043 48.848C151.899 48.272 153.723 47.536 155.515 46.64C157.371 45.744 159.131 44.784 160.795 43.76C162.523 42.736 163.995 41.776 165.211 40.88C165.403 40.752 165.563 40.752 165.691 40.88C165.819 41.008 165.755 41.136 165.499 41.264C164.219 42.16 162.747 43.152 161.083 44.24C159.419 45.264 157.659 46.224 155.803 47.12C153.947 48.016 152.091 48.752 150.234 49.328C148.379 49.904 146.651 50.192 145.051 50.192C141.595 50.192 139.323 49.424 138.235 47.888C137.146 46.352 136.858 44.4 137.37 42.032C137.883 39.6 139.035 36.976 140.827 34.16C142.683 31.28 144.827 28.528 147.259 25.904C144.507 26.224 141.947 26.544 139.579 26.864C137.275 27.12 135.45 27.344 134.106 27.536C133.85 27.6 133.722 27.568 133.722 27.44C133.658 27.248 133.754 27.12 134.01 27.056C135.418 26.864 137.339 26.608 139.771 26.288C142.267 25.968 144.955 25.648 147.835 25.328C149.307 23.792 150.811 22.352 152.347 21.008C153.883 19.664 155.387 18.512 156.859 17.552C158.331 16.592 159.739 15.856 161.083 15.344C162.427 14.768 163.643 14.512 164.731 14.576C165.883 14.576 166.555 14.864 166.747 15.44C167.003 15.952 166.907 16.656 166.459 17.552C166.075 18.448 165.371 19.504 164.347 20.72C163.387 21.872 162.235 23.088 160.891 24.368C163.579 24.304 166.043 24.4 168.283 24.656C170.523 24.848 172.251 25.232 173.467 25.808ZM139.099 40.4C139.739 40.208 140.827 39.632 142.363 38.672C143.899 37.648 145.627 36.432 147.547 35.024C149.467 33.552 151.451 31.952 153.499 30.224C155.547 28.496 157.467 26.8 159.259 25.136C157.595 25.2 155.867 25.296 154.075 25.424C152.283 25.488 150.523 25.616 148.795 25.808C146.427 28.432 144.347 31.12 142.555 33.872C140.827 36.56 139.675 38.736 139.099 40.4ZM160.027 24.464C161.371 23.184 162.523 22 163.483 20.912C164.507 19.76 165.243 18.768 165.691 17.936C166.203 17.04 166.395 16.336 166.267 15.824C166.203 15.248 165.691 14.96 164.731 14.96C162.491 14.96 159.995 15.952 157.243 17.936C154.491 19.92 151.867 22.32 149.371 25.136C151.163 24.944 152.955 24.816 154.747 24.752C156.539 24.624 158.299 24.528 160.027 24.464ZM202.768 40.88C203.024 40.752 203.184 40.752 203.248 40.88C203.376 41.008 203.312 41.136 203.056 41.264C201.328 42.544 199.568 43.6 197.776 44.432C196.048 45.2 194.064 45.584 191.824 45.584C190.672 45.584 189.776 45.36 189.136 44.912C188.56 44.464 188.112 43.92 187.792 43.28C187.28 43.984 186.544 44.912 185.584 46.064C184.624 47.152 183.568 48.24 182.416 49.328C181.264 50.352 180.112 51.248 178.96 52.016C177.808 52.784 176.784 53.168 175.888 53.168C175.056 53.168 174.512 52.784 174.256 52.016C174 51.248 173.936 50.288 174.064 49.136C174.256 47.984 174.576 46.736 175.024 45.392C175.472 44.048 175.952 42.8 176.464 41.648C175.76 42.48 175.024 43.44 174.256 44.528C173.488 45.552 172.688 46.512 171.856 47.408C171.024 48.304 170.16 49.072 169.264 49.712C168.432 50.352 167.536 50.672 166.576 50.672C165.168 50.672 164.272 50.192 163.888 49.232C163.44 48.272 163.312 47.152 163.504 45.872C163.632 44.528 163.952 43.216 164.464 41.936C164.912 40.656 165.36 39.696 165.808 39.056C166.064 38.736 166.384 38.608 166.768 38.672C167.216 38.672 167.248 38.96 166.864 39.536C166.48 40.112 166.064 41.008 165.616 42.224C165.168 43.376 164.848 44.56 164.656 45.776C164.464 46.928 164.496 47.952 164.752 48.848C165.008 49.744 165.616 50.192 166.576 50.192C167.536 50.192 168.496 49.808 169.456 49.04C170.416 48.272 171.344 47.344 172.24 46.256C173.2 45.168 174.096 44.048 174.928 42.896C175.76 41.744 176.528 40.784 177.232 40.016V39.92C177.36 39.664 177.552 39.44 177.808 39.248C178.064 39.056 178.288 38.96 178.48 38.96C178.672 38.896 178.768 38.96 178.768 39.152C178.832 39.28 178.768 39.536 178.576 39.92C178.064 41.008 177.52 42.288 176.944 43.76C176.368 45.168 175.888 46.544 175.504 47.888C175.184 49.232 175.024 50.352 175.024 51.248C175.024 52.208 175.312 52.688 175.888 52.688C176.72 52.688 177.712 52.272 178.864 51.44C180.016 50.672 181.136 49.776 182.224 48.752C183.376 47.664 184.432 46.576 185.392 45.488C186.416 44.336 187.184 43.44 187.696 42.8C187.568 42.288 187.536 41.776 187.6 41.264C187.664 40.688 187.792 40.144 187.984 39.632C188.24 38.992 188.56 38.544 188.944 38.288C189.392 38.032 189.744 37.968 190 38.096C190.256 38.224 190.384 38.512 190.384 38.96C190.448 39.408 190.288 39.952 189.904 40.592L188.464 42.512C188.592 43.216 188.912 43.824 189.424 44.336C189.936 44.784 190.736 45.008 191.824 45.008C194 45.008 195.952 44.656 197.68 43.952C199.408 43.184 201.104 42.16 202.768 40.88ZM188.656 39.92C188.464 40.432 188.368 41.04 188.368 41.744C188.944 41.104 189.296 40.624 189.424 40.304C190.064 39.344 190.192 38.768 189.808 38.576C189.424 38.384 189.04 38.832 188.656 39.92ZM232.972 40.88C233.164 40.752 233.292 40.752 233.356 40.88C233.484 41.008 233.42 41.136 233.164 41.264C232.14 42.032 230.892 42.928 229.42 43.952C227.948 44.912 226.412 45.872 224.812 46.832C223.276 47.728 221.708 48.496 220.108 49.136C218.572 49.712 217.196 50 215.98 50C215.084 50 214.444 49.808 214.06 49.424C213.676 48.976 213.42 48.432 213.292 47.792C213.228 47.152 213.26 46.448 213.388 45.68C213.58 44.912 213.804 44.176 214.06 43.472C213.548 44.048 212.844 44.752 211.948 45.584C211.052 46.416 210.06 47.248 208.972 48.08C207.884 48.848 206.7 49.488 205.42 50C204.204 50.576 202.988 50.864 201.772 50.864C199.724 50.864 198.668 50.064 198.604 48.464C198.54 46.864 199.212 45.104 200.62 43.184C201.964 41.264 203.852 39.504 206.284 37.904C208.716 36.304 211.404 35.504 214.348 35.504C215.884 35.504 217.036 35.856 217.804 36.56C218.636 37.2 219.18 37.968 219.436 38.864C219.756 39.696 219.82 40.528 219.628 41.36C219.5 42.192 219.244 42.8 218.86 43.184C218.604 43.504 218.412 43.536 218.284 43.28C218.156 43.024 218.188 42.8 218.38 42.608C218.636 42.288 218.828 41.776 218.956 41.072C219.148 40.368 219.148 39.664 218.956 38.96C218.764 38.192 218.284 37.52 217.516 36.944C216.812 36.368 215.756 36.08 214.348 36.08C212.684 36.144 211.052 36.528 209.452 37.232C207.916 37.936 206.508 38.832 205.228 39.92C203.948 40.944 202.828 42.096 201.868 43.376C200.908 44.592 200.236 45.744 199.852 46.832C199.468 47.856 199.436 48.72 199.756 49.424C200.012 50.064 200.684 50.384 201.772 50.384C203.18 50.384 204.588 50 205.996 49.232C207.468 48.464 208.78 47.6 209.932 46.64C211.148 45.68 212.172 44.752 213.004 43.856C213.836 42.96 214.348 42.384 214.54 42.128L214.924 41.36C215.18 40.784 215.532 40.464 215.98 40.4C216.428 40.272 216.428 40.656 215.98 41.552C215.788 42.064 215.468 42.768 215.02 43.664C214.636 44.496 214.348 45.36 214.156 46.256C213.964 47.152 213.964 47.92 214.156 48.56C214.412 49.2 215.02 49.52 215.98 49.52C217.132 49.52 218.476 49.232 220.012 48.656C221.548 48.016 223.084 47.248 224.62 46.352C226.22 45.456 227.756 44.528 229.228 43.568C230.7 42.544 231.948 41.648 232.972 40.88ZM265.174 40.88C265.43 40.752 265.59 40.752 265.654 40.88C265.782 41.008 265.718 41.136 265.462 41.264C264.054 42.352 262.486 43.408 260.758 44.432C259.094 45.456 257.334 46.416 255.478 47.312C253.622 48.144 251.734 48.848 249.814 49.424C247.958 50 246.134 50.32 244.342 50.384C242.486 50.512 241.334 50.128 240.886 49.232C240.502 48.272 240.534 46.992 240.982 45.392C241.238 44.56 241.494 43.792 241.75 43.088C242.07 42.384 242.358 41.648 242.614 40.88C242.934 40.048 242.966 39.344 242.71 38.768C242.454 38.192 242.102 37.552 241.654 36.848C241.398 36.336 241.174 35.952 240.982 35.696C239.702 36.72 238.39 37.712 237.046 38.672C235.702 39.568 234.358 40.496 233.014 41.456C232.95 41.456 232.758 41.52 232.438 41.648C232.053 41.712 232.053 41.584 232.438 41.264C233.91 40.304 235.35 39.312 236.758 38.288C238.166 37.264 239.51 36.208 240.79 35.12C240.214 34.032 240.022 33.04 240.214 32.144C240.342 31.44 240.662 30.896 241.174 30.512C241.686 30.128 242.166 29.936 242.614 29.936C243.126 29.936 243.51 30.128 243.766 30.512C244.086 30.896 244.054 31.472 243.67 32.24C243.158 33.264 242.39 34.288 241.366 35.312C241.942 36.4 242.486 37.36 242.998 38.192C243.51 38.96 243.606 39.984 243.286 41.264C243.158 41.712 242.998 42.32 242.806 43.088C242.614 43.856 242.422 44.656 242.23 45.488C242.102 46.256 242.006 46.992 241.942 47.696C241.942 48.4 242.102 48.944 242.422 49.328C242.806 49.84 243.414 50.032 244.246 49.904C246.038 49.84 247.862 49.52 249.718 48.944C251.638 48.368 253.494 47.664 255.286 46.832C257.142 45.936 258.902 44.976 260.566 43.952C262.23 42.928 263.766 41.904 265.174 40.88ZM241.078 32.24C240.95 32.688 240.886 33.136 240.886 33.584C240.886 33.968 240.982 34.384 241.174 34.832C241.622 34.32 242.006 33.84 242.326 33.392C242.71 32.944 242.998 32.496 243.19 32.048C243.446 31.472 243.51 31.056 243.382 30.8C243.254 30.544 243.03 30.448 242.71 30.512C242.39 30.512 242.038 30.672 241.654 30.992C241.334 31.312 241.142 31.728 241.078 32.24ZM289.074 40.88C289.266 40.752 289.394 40.752 289.458 40.88C289.586 41.008 289.522 41.136 289.266 41.264C287.794 42.352 286.098 43.472 284.178 44.624C282.322 45.712 280.338 46.736 278.226 47.696C276.178 48.592 274.066 49.36 271.89 50C269.778 50.576 267.794 50.896 265.938 50.96C264.338 51.024 263.186 50.736 262.482 50.096C261.714 49.52 261.298 48.784 261.234 47.888C261.17 46.928 261.426 45.872 262.002 44.72C262.514 43.568 263.282 42.512 264.306 41.552C265.266 40.592 266.418 39.792 267.762 39.152C269.17 38.512 270.642 38.192 272.178 38.192C273.65 38.192 274.546 38.64 274.866 39.536C275.25 40.368 274.77 41.168 273.426 41.936C272.338 42.576 271.026 42.896 269.49 42.896C268.018 42.832 266.738 42.48 265.65 41.84C264.69 42.736 263.922 43.728 263.346 44.816C262.706 45.84 262.354 46.8 262.29 47.696C262.226 48.528 262.482 49.232 263.058 49.808C263.57 50.32 264.53 50.544 265.938 50.48C267.794 50.416 269.778 50.096 271.89 49.52C274.002 48.88 276.082 48.112 278.13 47.216C280.178 46.256 282.13 45.232 283.986 44.144C285.906 43.056 287.602 41.968 289.074 40.88ZM272.178 38.672C271.09 38.736 270.002 39.024 268.914 39.536C267.89 40.048 266.93 40.72 266.034 41.552C266.994 42.064 268.178 42.32 269.586 42.32C270.994 42.32 272.178 42.064 273.138 41.552C274.226 40.848 274.642 40.208 274.386 39.632C274.13 38.992 273.394 38.672 272.178 38.672ZM366.068 0.943996C373.108 0.943996 378.74 1.936 382.964 3.92C387.252 5.84 390.324 8.368 392.18 11.504C394.1 14.64 394.9 18.224 394.58 22.256C394.324 26.288 393.108 30.384 390.932 34.544C388.82 38.704 385.876 42.8 382.1 46.832C378.388 50.8 374.004 54.352 368.948 57.488C363.892 60.624 358.292 63.12 352.148 64.976C346.068 66.896 339.604 67.824 332.756 67.76C332.052 67.76 331.54 67.728 331.22 67.664C330.388 69.584 329.94 71.056 329.876 72.08C329.876 72.208 329.78 72.272 329.588 72.272C329.46 72.272 329.396 72.208 329.396 72.08C329.396 71.504 329.46 70.832 329.588 70.064C329.78 69.36 330.068 68.56 330.452 67.664C327.636 67.408 325.236 66.704 323.252 65.552C321.332 64.464 320.02 63.152 319.316 61.616C318.676 60.144 318.772 58.544 319.604 56.816C320.5 55.152 322.388 53.584 325.268 52.112C325.78 51.792 326.1 51.76 326.228 52.016C326.356 52.272 326.164 52.56 325.652 52.88C322.9 54.288 321.108 55.76 320.276 57.296C319.444 58.896 319.348 60.368 319.988 61.712C320.692 63.12 321.972 64.304 323.828 65.264C325.684 66.288 327.924 66.928 330.548 67.184C331.572 64.56 333.172 61.456 335.348 57.872C337.524 54.288 339.988 50.544 342.74 46.64C345.492 42.672 348.404 38.736 351.476 34.832C354.612 30.864 357.652 27.184 360.596 23.792C363.604 20.4 366.388 17.456 368.948 14.96C371.508 12.464 373.62 10.704 375.284 9.68C375.476 9.552 375.604 9.552 375.668 9.68C375.796 9.808 375.764 9.936 375.572 10.064C374.036 11.152 372.02 12.976 369.524 15.536C367.092 18.032 364.436 20.976 361.556 24.368C358.676 27.696 355.7 31.344 352.628 35.312C349.556 39.216 346.612 43.12 343.796 47.024C341.044 50.864 338.58 54.544 336.404 58.064C334.228 61.584 332.564 64.624 331.412 67.184C331.604 67.184 331.796 67.184 331.988 67.184C332.244 67.248 332.5 67.28 332.756 67.28C339.348 67.28 345.62 66.32 351.572 64.4C357.588 62.544 363.06 60.048 367.988 56.912C372.916 53.84 377.236 50.352 380.948 46.448C384.66 42.48 387.572 38.448 389.684 34.352C391.86 30.192 393.108 26.16 393.428 22.256C393.812 18.288 393.108 14.768 391.316 11.696C389.524 8.624 386.58 6.16 382.484 4.304C378.388 2.384 372.916 1.424 366.068 1.424C357.876 1.424 350.676 2.576 344.468 4.88C338.26 7.12 333.044 9.968 328.82 13.424C324.596 16.816 321.3 20.496 318.932 24.464C316.564 28.432 315.092 32.144 314.516 35.6C314.004 38.992 314.356 41.84 315.572 44.144C316.788 46.384 318.868 47.504 321.812 47.504C323.028 47.504 324.18 47.28 325.268 46.832C326.356 46.32 327.348 45.68 328.244 44.912C329.14 44.144 329.908 43.248 330.548 42.224C331.188 41.136 331.668 40.016 331.988 38.864C332.116 38.416 332.276 38.224 332.468 38.288C332.724 38.352 332.788 38.64 332.66 39.152C332.34 40.368 331.828 41.52 331.124 42.608C330.42 43.632 329.588 44.56 328.628 45.392C327.668 46.16 326.58 46.8 325.364 47.312C324.212 47.76 323.028 47.984 321.812 47.984C319.508 47.984 317.684 47.312 316.34 45.968C315.06 44.624 314.26 42.864 313.94 40.688C313.684 38.448 313.908 35.92 314.612 33.104C315.316 30.288 316.564 27.408 318.356 24.464C320.148 21.52 322.452 18.64 325.268 15.824C328.148 13.008 331.54 10.512 335.444 8.336C339.412 6.096 343.924 4.304 348.98 2.96C354.1 1.616 359.796 0.943996 366.068 0.943996ZM423.136 40.88C423.328 40.752 423.456 40.752 423.52 40.88C423.648 41.008 423.584 41.136 423.328 41.264C421.856 42.352 420.16 43.472 418.24 44.624C416.384 45.712 414.4 46.736 412.288 47.696C410.24 48.592 408.128 49.36 405.952 50C403.84 50.576 401.856 50.896 400 50.96C398.4 51.024 397.248 50.736 396.544 50.096C395.776 49.52 395.36 48.784 395.296 47.888C395.232 46.928 395.488 45.872 396.064 44.72C396.576 43.568 397.344 42.512 398.368 41.552C399.328 40.592 400.48 39.792 401.824 39.152C403.232 38.512 404.704 38.192 406.24 38.192C407.712 38.192 408.608 38.64 408.928 39.536C409.312 40.368 408.832 41.168 407.488 41.936C406.4 42.576 405.088 42.896 403.552 42.896C402.08 42.832 400.8 42.48 399.712 41.84C398.752 42.736 397.984 43.728 397.408 44.816C396.768 45.84 396.416 46.8 396.352 47.696C396.288 48.528 396.544 49.232 397.12 49.808C397.632 50.32 398.592 50.544 400 50.48C401.856 50.416 403.84 50.096 405.952 49.52C408.064 48.88 410.144 48.112 412.192 47.216C414.24 46.256 416.192 45.232 418.048 44.144C419.968 43.056 421.664 41.968 423.136 40.88ZM406.24 38.672C405.152 38.736 404.064 39.024 402.976 39.536C401.952 40.048 400.992 40.72 400.096 41.552C401.056 42.064 402.24 42.32 403.648 42.32C405.056 42.32 406.24 42.064 407.2 41.552C408.288 40.848 408.704 40.208 408.448 39.632C408.192 38.992 407.456 38.672 406.24 38.672ZM448.771 40.88C449.027 40.752 449.187 40.752 449.251 40.88C449.379 41.008 449.315 41.136 449.059 41.264C447.331 42.544 445.571 43.6 443.779 44.432C442.051 45.2 440.067 45.584 437.827 45.584C436.675 45.584 435.779 45.36 435.139 44.912C434.563 44.464 434.115 43.92 433.795 43.28C433.283 43.984 432.547 44.912 431.587 46.064C430.627 47.152 429.571 48.24 428.419 49.328C427.267 50.352 426.115 51.248 424.963 52.016C423.811 52.784 422.787 53.168 421.89 53.168C420.93 53.168 420.354 52.688 420.162 51.728C419.97 50.768 420.034 49.616 420.354 48.272C420.61 46.864 421.026 45.424 421.602 43.952C422.114 42.416 422.659 41.072 423.235 39.92C423.363 39.664 423.555 39.44 423.811 39.248C424.067 39.056 424.291 38.96 424.483 38.96C424.675 38.896 424.771 38.96 424.771 39.152C424.835 39.28 424.771 39.536 424.579 39.92C424.067 41.008 423.523 42.288 422.947 43.76C422.37 45.168 421.922 46.544 421.602 47.888C421.218 49.232 421.026 50.352 421.026 51.248C421.026 52.208 421.314 52.688 421.89 52.688C422.722 52.688 423.715 52.272 424.867 51.44C426.019 50.672 427.139 49.776 428.227 48.752C429.379 47.664 430.435 46.576 431.395 45.488C432.419 44.336 433.187 43.44 433.699 42.8C433.571 42.288 433.539 41.776 433.603 41.264C433.667 40.688 433.795 40.144 433.987 39.632C434.243 38.992 434.563 38.544 434.947 38.288C435.395 38.032 435.747 37.968 436.003 38.096C436.259 38.224 436.387 38.512 436.387 38.96C436.451 39.408 436.291 39.952 435.907 40.592L434.467 42.512C434.595 43.216 434.915 43.824 435.427 44.336C435.939 44.784 436.739 45.008 437.827 45.008C440.067 45.008 442.019 44.656 443.683 43.952C445.411 43.184 447.107 42.16 448.771 40.88ZM434.659 39.92C434.467 40.496 434.403 41.104 434.467 41.744C434.659 41.424 434.819 41.168 434.947 40.976C435.139 40.72 435.299 40.496 435.427 40.304C436.067 39.344 436.195 38.768 435.811 38.576C435.427 38.384 435.043 38.832 434.659 39.92ZM472.636 40.88C472.828 40.752 472.956 40.752 473.02 40.88C473.148 41.008 473.084 41.136 472.828 41.264C471.356 42.352 469.66 43.472 467.74 44.624C465.884 45.712 463.9 46.736 461.788 47.696C459.74 48.592 457.628 49.36 455.452 50C453.34 50.576 451.356 50.896 449.5 50.96C447.9 51.024 446.748 50.736 446.044 50.096C445.276 49.52 444.86 48.784 444.796 47.888C444.732 46.928 444.988 45.872 445.564 44.72C446.076 43.568 446.844 42.512 447.868 41.552C448.828 40.592 449.98 39.792 451.324 39.152C452.732 38.512 454.204 38.192 455.74 38.192C457.212 38.192 458.108 38.64 458.428 39.536C458.812 40.368 458.332 41.168 456.988 41.936C455.9 42.576 454.588 42.896 453.052 42.896C451.58 42.832 450.3 42.48 449.212 41.84C448.252 42.736 447.484 43.728 446.908 44.816C446.268 45.84 445.916 46.8 445.852 47.696C445.788 48.528 446.044 49.232 446.62 49.808C447.132 50.32 448.092 50.544 449.5 50.48C451.356 50.416 453.34 50.096 455.452 49.52C457.564 48.88 459.644 48.112 461.692 47.216C463.74 46.256 465.692 45.232 467.548 44.144C469.468 43.056 471.164 41.968 472.636 40.88ZM455.74 38.672C454.652 38.736 453.564 39.024 452.476 39.536C451.452 40.048 450.492 40.72 449.596 41.552C450.556 42.064 451.74 42.32 453.148 42.32C454.556 42.32 455.74 42.064 456.7 41.552C457.788 40.848 458.204 40.208 457.948 39.632C457.692 38.992 456.956 38.672 455.74 38.672ZM499.615 40.88C499.871 40.752 500.031 40.752 500.095 40.88C500.223 41.008 500.159 41.136 499.903 41.264C498.623 42.16 497.151 43.152 495.487 44.24C493.823 45.264 492.063 46.224 490.207 47.12C488.351 48.016 486.495 48.752 484.639 49.328C482.783 49.904 481.055 50.192 479.455 50.192C476.127 50.192 473.919 49.392 472.831 47.792C471.742 46.192 471.454 44.208 471.966 41.84C472.415 39.408 473.502 36.816 475.23 34.064C477.023 31.248 479.071 28.656 481.375 26.288C483.743 23.856 486.175 21.84 488.671 20.24C491.231 18.576 493.535 17.712 495.583 17.648C497.119 17.584 498.143 17.872 498.655 18.512C499.167 19.088 499.359 19.824 499.231 20.72C499.103 21.616 498.719 22.576 498.079 23.6C497.503 24.56 496.863 25.392 496.159 26.096C494.879 27.376 493.279 28.784 491.359 30.32C489.503 31.792 487.519 33.232 485.407 34.64C483.295 36.048 481.183 37.328 479.071 38.48C476.959 39.632 475.071 40.496 473.407 41.072C472.703 43.504 472.735 45.552 473.503 47.216C474.335 48.88 476.319 49.712 479.455 49.712C480.991 49.712 482.687 49.424 484.543 48.848C486.399 48.272 488.223 47.536 490.015 46.64C491.871 45.744 493.631 44.784 495.295 43.76C496.959 42.736 498.399 41.776 499.615 40.88ZM495.583 18.128C493.855 18.192 491.871 18.96 489.631 20.432C487.391 21.84 485.215 23.664 483.103 25.904C480.991 28.08 479.071 30.48 477.343 33.104C475.615 35.664 474.367 38.096 473.599 40.4C475.263 39.824 477.119 38.992 479.167 37.904C481.215 36.752 483.263 35.504 485.311 34.16C487.359 32.752 489.279 31.312 491.071 29.84C492.927 28.368 494.495 26.992 495.775 25.712C496.351 25.136 496.927 24.432 497.503 23.6C498.143 22.704 498.527 21.84 498.655 21.008C498.847 20.176 498.719 19.472 498.271 18.896C497.887 18.32 496.991 18.064 495.583 18.128ZM527.863 40.88C528.055 40.752 528.183 40.752 528.247 40.88C528.375 41.008 528.311 41.136 528.055 41.264C526.391 42.544 524.439 43.792 522.199 45.008C519.959 46.16 517.719 46.736 515.479 46.736C513.431 46.736 511.831 46.352 510.679 45.584C509.591 47.12 508.183 48.464 506.455 49.616C504.727 50.768 502.839 51.344 500.791 51.344C499.447 51.344 498.454 51.024 497.814 50.384C497.11 49.744 496.726 48.944 496.662 47.984C496.534 47.024 496.694 45.968 497.142 44.816C497.526 43.664 498.102 42.608 498.87 41.648C499.575 40.688 500.471 39.888 501.559 39.248C502.647 38.608 503.799 38.288 505.015 38.288C505.911 38.288 506.519 38.544 506.839 39.056C507.159 39.568 507.063 40.144 506.551 40.784C506.359 41.104 506.103 41.232 505.783 41.168C505.526 41.04 505.559 40.816 505.879 40.496C506.327 40.048 506.455 39.664 506.263 39.344C506.135 38.96 505.719 38.768 505.015 38.768C503.607 38.768 502.295 39.408 501.079 40.688C499.863 41.904 498.966 43.28 498.39 44.816C497.75 46.352 497.59 47.76 497.91 49.04C498.166 50.256 499.127 50.864 500.791 50.864C502.775 50.864 504.567 50.32 506.167 49.232C507.831 48.144 509.207 46.864 510.295 45.392C509.399 44.688 508.791 43.888 508.471 42.992C508.151 42.032 508.055 41.104 508.183 40.208C508.375 39.184 508.759 38.416 509.335 37.904C509.911 37.392 510.487 37.136 511.062 37.136C511.703 37.136 512.215 37.392 512.599 37.904C513.047 38.416 513.207 39.184 513.079 40.208C512.951 41.104 512.663 42 512.215 42.896C511.831 43.792 511.479 44.496 511.159 45.008C512.183 45.84 513.623 46.256 515.479 46.256C517.655 46.256 519.831 45.68 522.007 44.528C524.247 43.312 526.199 42.096 527.863 40.88ZM509.335 40.208C509.207 40.912 509.239 41.68 509.431 42.512C509.623 43.344 510.071 44.08 510.775 44.72C511.031 44.272 511.351 43.632 511.734 42.8C512.183 41.968 512.471 41.104 512.599 40.208C512.727 39.44 512.631 38.864 512.311 38.48C512.055 38.032 511.703 37.776 511.255 37.712C510.871 37.648 510.487 37.808 510.103 38.192C509.719 38.576 509.463 39.248 509.335 40.208ZM554.353 40.88C554.609 40.752 554.769 40.752 554.833 40.88C554.961 41.008 554.897 41.136 554.641 41.264C553.361 42.224 551.889 43.056 550.225 43.76C548.561 44.464 546.833 45.072 545.041 45.584C543.313 46.032 541.553 46.352 539.761 46.544C537.969 46.736 536.273 46.768 534.673 46.64C533.265 47.92 531.633 48.624 529.777 48.752C528.625 48.816 527.985 48.464 527.857 47.696C527.793 46.864 528.337 46.288 529.489 45.968C530.193 45.712 530.897 45.648 531.601 45.776C532.369 45.84 533.137 45.936 533.905 46.064C534.673 45.296 535.313 44.432 535.825 43.472C536.401 42.448 536.785 41.52 536.977 40.688C537.169 39.792 537.137 39.056 536.881 38.48C536.689 37.904 536.241 37.616 535.537 37.616C534.449 37.552 533.169 38.192 531.697 39.536C530.225 40.816 528.657 42.544 526.993 44.72C526.097 47.088 525.073 49.68 523.921 52.496C522.769 55.376 521.553 58.16 520.273 60.848C518.993 63.6 517.745 66.16 516.529 68.528C515.249 70.96 514.065 72.944 512.977 74.48C511.441 76.72 510.289 77.744 509.521 77.552C508.753 77.36 508.913 75.92 510.001 73.232C510.705 71.312 511.665 69.136 512.881 66.704C514.545 63.44 516.497 59.952 518.737 56.24C520.913 52.528 523.121 49.136 525.361 46.064C526.321 43.76 527.121 41.744 527.761 40.016C528.401 38.224 528.849 36.944 529.105 36.176C529.105 36.048 529.201 35.984 529.393 35.984C529.585 35.92 529.681 36.016 529.681 36.272C529.553 36.912 529.297 37.84 528.913 39.056C528.529 40.272 528.049 41.712 527.473 43.376C529.073 41.52 530.545 40.016 531.889 38.864C533.297 37.648 534.513 37.072 535.537 37.136C536.561 37.136 537.265 37.456 537.649 38.096C538.033 38.736 538.161 39.504 538.033 40.4C537.969 41.296 537.681 42.288 537.169 43.376C536.657 44.4 535.985 45.328 535.153 46.16C538.353 46.288 541.713 45.904 545.233 45.008C548.753 44.112 551.793 42.736 554.353 40.88ZM512.305 74.192C513.137 72.848 514.097 71.152 515.185 69.104C516.209 67.056 517.265 64.816 518.353 62.384C519.441 60.016 520.529 57.552 521.617 54.992C522.705 52.496 523.729 50.096 524.689 47.792C522.641 50.736 520.625 53.904 518.641 57.296C516.593 60.688 514.833 63.888 513.361 66.896C512.721 68.176 512.145 69.36 511.633 70.448C511.121 71.536 510.705 72.528 510.385 73.424C509.553 75.664 509.329 76.848 509.713 76.976C510.097 77.168 510.961 76.24 512.305 74.192ZM529.681 48.272C530.385 48.208 531.057 48.016 531.697 47.696C532.337 47.376 532.913 46.96 533.425 46.448C532.529 46.256 531.761 46.192 531.121 46.256C530.545 46.256 530.033 46.32 529.585 46.448C528.753 46.704 528.337 47.088 528.337 47.6C528.337 48.112 528.785 48.336 529.681 48.272ZM578.293 40.88C578.485 40.752 578.613 40.752 578.677 40.88C578.805 41.008 578.741 41.136 578.484 41.264C577.013 42.352 575.317 43.472 573.397 44.624C571.541 45.712 569.557 46.736 567.445 47.696C565.397 48.592 563.285 49.36 561.109 50C558.997 50.576 557.013 50.896 555.157 50.96C553.556 51.024 552.404 50.736 551.7 50.096C550.932 49.52 550.516 48.784 550.452 47.888C550.388 46.928 550.644 45.872 551.22 44.72C551.732 43.568 552.5 42.512 553.524 41.552C554.485 40.592 555.637 39.792 556.98 39.152C558.389 38.512 559.861 38.192 561.397 38.192C562.869 38.192 563.765 38.64 564.085 39.536C564.469 40.368 563.989 41.168 562.645 41.936C561.557 42.576 560.245 42.896 558.709 42.896C557.237 42.832 555.957 42.48 554.869 41.84C553.909 42.736 553.14 43.728 552.564 44.816C551.924 45.84 551.572 46.8 551.508 47.696C551.444 48.528 551.7 49.232 552.276 49.808C552.788 50.32 553.748 50.544 555.157 50.48C557.013 50.416 558.997 50.096 561.109 49.52C563.221 48.88 565.301 48.112 567.349 47.216C569.397 46.256 571.349 45.232 573.205 44.144C575.125 43.056 576.821 41.968 578.293 40.88ZM561.397 38.672C560.309 38.736 559.221 39.024 558.133 39.536C557.109 40.048 556.149 40.72 555.253 41.552C556.213 42.064 557.397 42.32 558.805 42.32C560.213 42.32 561.397 42.064 562.357 41.552C563.445 40.848 563.861 40.208 563.605 39.632C563.349 38.992 562.613 38.672 561.397 38.672ZM610.455 40.88C610.711 40.752 610.871 40.752 610.935 40.88C611.063 41.008 610.999 41.136 610.743 41.264C609.335 42.352 607.767 43.408 606.039 44.432C604.375 45.456 602.615 46.416 600.759 47.312C598.903 48.144 597.015 48.848 595.095 49.424C593.239 50 591.415 50.32 589.623 50.384C587.767 50.512 586.615 50.128 586.167 49.232C585.783 48.272 585.815 46.992 586.263 45.392C586.519 44.56 586.775 43.792 587.031 43.088C587.351 42.384 587.639 41.648 587.895 40.88C588.215 40.048 588.247 39.344 587.991 38.768C587.735 38.192 587.383 37.552 586.935 36.848C586.679 36.336 586.455 35.952 586.263 35.696C584.983 36.72 583.671 37.712 582.327 38.672C580.983 39.568 579.639 40.496 578.295 41.456C578.231 41.456 578.039 41.52 577.719 41.648C577.335 41.712 577.335 41.584 577.719 41.264C579.191 40.304 580.631 39.312 582.039 38.288C583.447 37.264 584.791 36.208 586.071 35.12C585.495 34.032 585.303 33.04 585.495 32.144C585.623 31.44 585.943 30.896 586.455 30.512C586.967 30.128 587.447 29.936 587.895 29.936C588.407 29.936 588.791 30.128 589.047 30.512C589.367 30.896 589.335 31.472 588.951 32.24C588.439 33.264 587.671 34.288 586.647 35.312C587.223 36.4 587.767 37.36 588.279 38.192C588.791 38.96 588.887 39.984 588.567 41.264C588.439 41.712 588.279 42.32 588.087 43.088C587.895 43.856 587.703 44.656 587.511 45.488C587.383 46.256 587.287 46.992 587.223 47.696C587.223 48.4 587.383 48.944 587.703 49.328C588.087 49.84 588.695 50.032 589.527 49.904C591.319 49.84 593.143 49.52 594.999 48.944C596.919 48.368 598.775 47.664 600.567 46.832C602.423 45.936 604.183 44.976 605.847 43.952C607.511 42.928 609.047 41.904 610.455 40.88ZM586.359 32.24C586.231 32.688 586.167 33.136 586.167 33.584C586.167 33.968 586.263 34.384 586.455 34.832C586.903 34.32 587.287 33.84 587.607 33.392C587.991 32.944 588.279 32.496 588.471 32.048C588.727 31.472 588.791 31.056 588.663 30.8C588.535 30.544 588.311 30.448 587.991 30.512C587.671 30.512 587.319 30.672 586.935 30.992C586.615 31.312 586.423 31.728 586.359 32.24Z" fill="black"/>
</svg>
