<svg width="223" height="56" viewBox="0 0 223 56" fill="none" xmlns="http://www.w3.org/2000/svg">
<path d="M17.9573 32.4271C15.668 34.4034 12.5527 35.7273 9.53545 35.9348C10.0153 34.2081 10.1758 32.1231 10.445 30.7515C10.8551 30.4759 11.592 30.0762 11.699 29.6336C11.7663 29.2907 11.6423 28.964 11.3075 28.9924C10.6338 29.0013 10.2163 29.7593 9.9229 30.8439L6.75732 33.28C5.90127 33.9788 5.04117 34.6297 4.18108 35.2807C4.09677 34.8543 4.01245 34.4279 3.83654 34.0574C3.0364 32.0056 1.58697 33.0919 2.62948 34.5933C2.90511 35.0034 3.45554 35.2458 4.00598 35.4882C4.33512 37.0982 4.48592 39.4458 6.73386 39.2553C8.21655 39.1296 8.97206 37.8131 9.46006 36.1821C12.573 35.9664 15.784 34.6345 18.0692 32.6103C18.2962 32.4465 18.1365 32.2674 17.9573 32.4271ZM8.96151 35.9835C7.51854 36.0094 5.77645 35.9162 4.43238 35.4039C5.2487 34.8048 6.06097 34.1579 6.91702 33.4591C7.91249 32.7003 8.86014 31.9456 9.85967 31.2347C9.54272 32.6103 9.31413 34.4603 8.96151 35.9835ZM6.71359 39.0161C4.75262 39.1823 4.57021 37.0301 4.25728 35.6114C5.65323 36.1675 7.44316 36.2567 8.88612 36.2307C8.48162 37.7102 7.86148 38.9189 6.71359 39.0161ZM3.04372 34.3655C2.64812 33.6764 3.17341 33.0538 3.60145 34.1255C3.72548 34.4522 3.85357 34.8267 3.93383 35.2053C3.47905 34.9548 3.27557 34.8275 3.04372 34.3655ZM11.2799 29.2356C11.4712 29.2194 11.4874 29.4107 11.4518 29.5582C11.3845 29.9011 10.8308 30.1889 10.5601 30.4045C10.7425 29.7147 10.9451 29.2639 11.2799 29.2356ZM30.3587 31.376C28.7861 32.7136 26.5681 34.3949 24.4158 34.5773C23.4593 34.6584 22.7216 34.48 22.2109 34.1379C22.4573 33.6353 22.8983 32.5863 22.9647 31.6654C23.0774 29.5845 20.69 29.835 20.5255 31.8722C20.455 32.7453 20.8311 33.7732 21.7966 34.3657C20.866 35.8898 19.2536 37.3271 17.2927 37.4933C13.9925 37.773 16.1123 31.5236 18.8863 31.2885C19.5559 31.2318 19.7837 31.646 19.3898 32.113C19.1271 32.4242 19.5697 32.5312 19.7367 32.2281C20.2101 31.5617 19.727 30.9764 18.8661 31.0494C15.1833 31.3615 13.2475 38.077 17.3129 37.7324C19.3695 37.5581 21.0257 36.0689 21.996 34.4452C22.6024 34.7792 23.4317 34.9016 24.4361 34.8164C26.6362 34.63 28.902 32.9446 30.4706 31.5592C30.6976 31.3954 30.5379 31.2163 30.3587 31.376ZM21.0994 31.8235C21.1805 29.938 22.8391 30.1828 22.7256 31.6857C22.6551 32.5588 22.21 33.5599 22.0074 34.0107C21.2851 33.4457 21.0646 32.5491 21.0994 31.8235ZM45.5656 30.0871C43.0096 32.327 40.3888 33.8016 36.8981 34.6755C35.1528 35.1124 33.3831 35.2624 31.9677 35.0452C31.8785 33.993 31.5705 33.2001 31.0476 32.7146C29.8859 31.5124 27.8593 33.1775 29.7506 34.4624C30.3132 34.8482 31.0071 35.0784 31.7448 35.2568L31.7488 35.3046C31.9231 37.3612 31.393 40.2001 30.3805 43.0318C29.364 45.8156 27.857 48.4964 26.1255 50.2328C25.0108 51.2908 23.82 52.0179 22.5764 52.1233C17.3194 52.6171 22.5893 41.4762 29.3039 31.4654L29.3955 31.4094C33.8014 29.3982 42.5256 25.4794 44.5749 20.1031C45.135 18.755 45.9797 15.6486 43.401 15.9153C36.5615 16.495 12.162 53.1505 22.5967 52.3625C23.8881 52.253 25.1268 51.5218 26.2852 50.412C28.0605 48.6237 29.5634 45.895 30.6278 43.1072C31.6402 40.2755 32.1663 37.3888 31.988 35.2843C33.4512 35.4975 35.173 35.3516 36.9662 34.9106C40.4569 34.0367 43.0339 32.6139 45.7253 30.2663C45.9522 30.1025 45.7925 29.9234 45.5656 30.0871ZM30.0691 34.2427C29.1353 33.4547 30.194 32.3052 30.8287 32.974C31.2997 33.4158 31.5956 34.0651 31.7205 34.9698C31.0346 34.8352 30.5799 34.5848 30.0691 34.2427ZM43.4213 16.1544C45.8086 15.9039 44.8124 18.9269 44.3317 20.0756C42.2662 25.2605 33.8249 29.1071 29.5584 31.0584C34.7376 23.3936 40.755 16.5249 43.4213 16.1544ZM60.834 21.23C59.5896 20.7574 57.182 20.7688 54.5076 21.0436C56.9671 18.2339 58.2593 15.8603 56.0073 16.003C53.8469 16.0897 50.7016 18.7649 48.0435 22.0732C45.1981 22.6034 42.6 23.209 41.2292 23.5179C40.9941 23.586 41.0622 23.821 41.2973 23.753C42.6202 23.4481 45.0789 22.9025 47.7808 22.3845C43.4398 28.0032 40.8191 35.1621 47.7064 34.5784C50.8631 34.3108 55.1838 31.2951 57.5169 29.2669C57.7438 29.1031 57.5363 28.928 57.3572 29.0877C55.0679 31.0641 50.7471 34.0798 47.6861 34.3392C44.5773 34.6027 43.7974 32.7901 44.2603 30.2941C45.7024 29.6901 50.8622 25.2064 54.2012 21.4068C57.019 21.1198 59.4745 21.1044 60.7229 21.6248C61.1696 21.7796 61.3804 21.4246 60.834 21.23ZM44.3275 29.9512C44.7596 28.2285 46.4214 25.101 48.5421 22.2718C50.2477 21.9346 52.057 21.6849 53.727 21.4952C50.4714 25.1431 45.6302 29.4072 44.3275 29.9512ZM54.0812 21.1279C52.3635 21.3217 50.5541 21.5714 48.8006 21.9127C51.0526 18.9279 53.8234 16.3808 56.0235 16.1943C57.8929 16.084 56.497 18.3701 54.0812 21.1279ZM74.3949 27.6437C72.8263 29.0291 71.2691 29.98 69.1168 30.1624C68.0646 30.2516 67.5376 29.7182 67.3374 29.0608L67.9738 28.0434C68.6774 26.6831 67.4371 26.2583 66.9767 27.6462C66.8259 28.1407 66.7789 28.7227 66.9669 29.2367C66.0242 30.6172 63.2234 34.5157 61.5016 34.6616C60.3537 34.7589 61.4278 30.3806 62.3016 28.1869C62.6632 27.3374 61.8744 27.6932 61.632 28.2437L61.6361 28.2915C60.3788 29.9396 58.6221 33.6532 56.7568 33.8113C54.7958 33.9775 55.7386 29.7548 56.4503 28.4902C56.7843 27.8838 56.1147 27.9405 55.9039 28.2956C55.1484 29.6121 54.003 34.2855 56.7771 34.0504C58.6424 33.8923 60.0294 30.9326 61.3224 29.137C60.4688 31.5698 59.8478 35.0426 61.5218 34.9008C63.3393 34.7467 66.1004 30.948 67.035 29.4718C67.3747 30.0692 67.9932 30.5467 69.1411 30.4494C71.3891 30.2589 72.9423 29.2601 74.5546 27.8228C74.7816 27.6591 74.6219 27.4799 74.3949 27.6437ZM67.3236 27.7613C67.613 26.6288 68.2632 26.9109 67.7225 27.9202C67.643 28.1196 67.472 28.3749 67.2572 28.6822C67.2288 28.3474 67.2482 28.0085 67.3236 27.7613ZM87.769 26.5102C85.838 28.1671 82.0118 31.3336 79.6682 31.5322C77.7072 31.6984 78.9823 28.5555 79.3317 27.5625C79.6852 26.6172 78.988 26.9172 78.7975 27.5114L78.6386 27.9102C78.2528 28.4728 75.4479 32.3235 72.626 32.5626C69.3299 32.8902 73.3693 25.4183 78.2876 24.9051C81.1573 24.6619 81.0933 27.3168 80.572 27.9872C80.3969 28.1948 80.6207 28.5612 80.8355 28.2539C81.4881 27.4279 81.3721 24.3547 78.2633 24.6182C72.4282 25.1127 68.5331 33.1504 72.6463 32.8018C75.0856 32.595 77.5013 29.8372 78.4562 28.6001C78.0955 30.0277 77.9188 31.9214 79.6885 31.7714C82.1277 31.5646 85.954 28.3982 87.8809 26.6934C88.1079 26.5296 87.9482 26.3505 87.769 26.5102ZM102.138 25.2923C99.5384 27.584 95.6635 30.1765 92.0925 30.6719C91.7618 30.7481 91.3711 30.6849 91.1595 30.4619C90.4728 29.7494 91.1351 27.3328 91.2494 26.4079C91.4269 25.0922 90.7046 24.5271 90.0415 23.5236C90.523 22.9529 90.8611 22.3943 91.0597 21.8958C91.6474 20.3044 89.4992 20.5347 89.3338 21.9939C89.2827 22.5281 89.4668 22.9942 89.7464 23.4522C88.5483 24.6617 87.1986 25.7877 85.8448 26.8659C85.4865 27.1853 86.092 26.9413 86.1399 26.9373C87.398 25.8672 88.708 24.8409 89.8664 23.7311C90.0261 23.9102 90.138 24.0935 90.2499 24.2767C90.7411 24.9576 91.1165 25.4075 90.8984 26.2449C90.7241 27.0304 90.4461 27.7284 90.2758 28.5618C89.9792 30.1766 90.3553 31.2045 92.1606 30.907C95.7316 30.4116 99.6543 27.8151 102.298 25.4715C102.525 25.3077 102.365 25.1285 102.138 25.2923ZM89.7683 22.0052C89.8704 20.9368 91.285 20.576 90.8124 21.8204C90.6576 22.267 90.3155 22.7778 89.9256 23.2925C89.6978 22.8783 89.7091 22.4438 89.7683 22.0052ZM112.372 24.425C109.68 26.7726 104.921 29.7291 101.25 30.1848C98.4883 30.5634 99.0306 27.8679 100.742 25.8924C101.847 26.4249 103.621 26.3228 104.62 25.6118C105.894 24.7331 105.275 23.6776 103.84 23.7992C99.2008 24.1924 96.5039 31.0206 101.271 30.4239C104.989 29.9642 109.796 27.0037 112.483 24.6082C112.71 24.4444 112.551 24.2653 112.372 24.425ZM103.86 24.0384C105.056 23.937 105.504 24.6698 104.46 25.4327C103.548 26.0399 101.918 26.1299 100.921 25.7327C101.713 24.8466 102.764 24.1794 103.86 24.0384ZM132.891 22.6858C130.2 25.0335 125.44 27.99 121.77 28.4456C119.008 28.8242 119.55 26.1288 121.261 24.1532C122.366 24.6858 124.14 24.5836 125.14 23.8727C126.414 22.9939 125.795 21.9385 124.36 22.0601C119.72 22.4533 117.023 29.2815 121.79 28.6848C125.509 28.2251 130.316 25.2645 133.003 22.869C133.23 22.7053 133.07 22.5261 132.891 22.6858ZM124.38 22.2992C125.576 22.1979 126.023 22.9307 124.98 23.6935C124.068 24.3007 122.438 24.3907 121.441 23.9935C122.233 23.1075 123.284 22.4403 124.38 22.2992ZM146.954 21.4939C145.385 22.8794 143.068 24.521 140.963 24.6993C136.758 25.1039 137.395 21.8223 134.956 22.0291C133.186 22.1791 131.504 25.0674 130.37 26.4642C130.656 25.2839 131.386 23.1024 131.875 22.0494C132.117 21.4989 131.456 21.6514 131.337 21.9505C130.808 23.1032 130.198 25.5636 129.956 26.692C129.813 27.2822 130.228 27.0544 130.447 26.795C131.668 25.2944 133.302 22.4101 134.976 22.2682C136.806 22.2577 136.129 25.6389 140.983 24.9385C143.136 24.756 145.501 23.1104 147.066 21.6771C147.293 21.5134 147.133 21.3342 146.954 21.4939ZM160.494 20.3463C156.951 23.4406 154.079 25.37 149.806 27.8036C150.851 25.3546 151.629 23.1691 152.029 21.6418C152.319 20.5093 151.701 20.6099 151.439 21.4992L151.176 21.8105C150.703 22.4768 147.982 26.1759 145.208 26.411C141.912 26.7385 145.951 19.2667 150.821 18.7575C153.739 18.5103 153.675 21.1652 153.154 21.8356C152.979 22.0431 153.154 22.4136 153.369 22.1063C154.07 21.2762 153.906 18.2071 150.797 18.4706C145.01 18.9611 141.115 26.9987 145.228 26.6501C147.667 26.4434 150.035 23.6896 151.038 22.4484L151.253 22.1412C150.765 23.7722 149.891 25.9659 148.838 28.3192L148.24 28.6589C144.377 30.8169 134.024 35.9816 134.131 41.2233C134.189 43.0489 135.554 43.8004 137.228 43.6585C141.536 43.3415 146.563 35.0152 149.595 28.1587C154.148 25.6051 156.752 23.9392 160.654 20.5255C160.881 20.3617 160.673 20.1866 160.494 20.3463ZM137.208 43.4194C135.677 43.5491 134.416 42.8852 134.37 41.2031C134.279 36.1527 144.632 30.9879 148.356 28.8899L148.675 28.6702C145.718 35.2795 141.125 43.0391 137.208 43.4194ZM170.938 19.4612C168.247 21.8088 163.487 24.7653 159.817 25.221C157.194 25.5396 157.852 22.4972 159.372 20.5378C159.722 20.1228 159.171 19.8804 158.913 20.2395C157.118 22.3667 156.74 25.8671 159.837 25.4601C163.603 24.9964 168.363 22.0399 171.098 19.6403C171.325 19.4766 171.117 19.3015 170.938 19.4612ZM160.505 18.5631C160.815 18.2477 161.182 18.024 161.552 17.8481C162.433 17.4362 161.456 17.2782 161.133 17.45C160.667 17.634 160.456 17.9891 160.254 18.4398C160.214 18.5396 160.33 18.7706 160.505 18.5631ZM184.996 18.2697C183.428 19.6551 181.11 21.2967 179.005 21.475C174.801 21.8796 175.438 18.5981 172.998 18.8048C171.229 18.9548 169.547 21.8432 168.413 23.2399C168.698 22.0596 169.428 19.8781 169.917 18.8251C170.16 18.2747 169.498 18.4271 169.379 18.7262C168.85 19.879 168.24 22.3393 167.998 23.4677C167.856 24.0579 168.27 23.8301 168.489 23.5707C169.711 22.0701 171.345 19.1858 173.019 19.0439C174.848 19.0334 174.172 22.4146 179.026 21.7142C181.178 21.5318 183.543 19.8861 185.108 18.4529C185.335 18.2891 185.175 18.11 184.996 18.2697ZM195.236 17.4018C192.545 19.7494 187.786 22.7059 184.115 23.1615C181.353 23.5402 181.895 20.8447 183.607 18.8691C184.712 19.4017 186.485 19.2996 187.485 18.5886C188.759 17.7099 188.14 16.6544 186.705 16.776C182.066 17.1692 179.369 23.9974 184.135 23.4007C187.854 22.941 192.661 19.9805 195.348 17.585C195.575 17.4212 195.415 17.2421 195.236 17.4018ZM186.725 17.0152C187.921 16.9138 188.368 17.6466 187.325 18.4095C186.413 19.0167 184.783 19.1067 183.786 18.7094C184.578 17.8234 185.629 17.1562 186.725 17.0152ZM205.473 16.5342C202.781 18.8818 198.022 21.8383 194.351 22.294C191.59 22.6726 192.132 19.9771 193.843 18.0016C194.948 18.5341 196.722 18.432 197.721 17.721C198.996 16.8423 198.376 15.7868 196.941 15.9084C192.302 16.3016 189.605 23.1298 194.372 22.5331C198.09 22.0734 202.897 19.1129 205.585 16.7174C205.812 16.5536 205.652 16.3745 205.473 16.5342ZM196.962 16.1476C198.157 16.0462 198.605 16.779 197.562 17.5419C196.65 18.1491 195.019 18.2391 194.022 17.8419C194.814 16.9558 195.866 16.2886 196.962 16.1476ZM219.822 15.318C217.223 17.6097 213.348 20.2022 209.777 20.6975C209.446 20.7738 209.055 20.7105 208.844 20.4876C208.157 19.775 208.819 17.3585 208.934 16.4335C209.111 15.1178 208.389 14.5528 207.726 13.5492C208.207 12.9785 208.545 12.42 208.744 11.9214C209.332 10.3301 207.183 10.5603 207.018 12.0195C206.967 12.5537 207.151 13.0199 207.431 13.4779C206.233 14.6874 204.883 15.8134 203.529 16.8916C203.171 17.211 203.776 16.967 203.824 16.9629C205.082 15.8928 206.392 14.8665 207.551 13.7568C207.71 13.9359 207.822 14.1191 207.934 14.3023C208.425 14.9833 208.801 15.4332 208.583 16.2706C208.408 17.0561 208.13 17.7541 207.96 18.5874C207.663 20.2023 208.04 21.2302 209.845 20.9326C213.416 20.4373 217.339 17.8407 219.982 15.4971C220.209 15.3334 220.049 15.1542 219.822 15.318ZM207.453 12.0309C207.555 10.9624 208.969 10.6017 208.497 11.846C208.342 12.2927 208 12.8034 207.61 13.3182C207.382 12.9039 207.393 12.4694 207.453 12.0309Z" fill="#000000"/>
</svg>
