<svg width="498" height="114" viewBox="0 0 498 114" fill="none" xmlns="http://www.w3.org/2000/svg">
<path d="M35.8261 68.3822C31.2473 72.3347 25.0164 74.9818 18.9819 75.3965C19.9419 71.9431 20.2632 67.7732 20.8017 65.0299C21.6221 64.4788 23.0959 63.6796 23.31 62.7943C23.4446 62.1085 23.1966 61.4551 22.527 61.5118C21.1797 61.5296 20.3446 63.0454 19.7576 65.2147L13.426 70.0863C11.7138 71.4837 9.99351 72.7855 8.27322 74.0873C8.10466 73.2345 7.9361 72.3817 7.58433 71.6407C5.98439 67.5371 3.08534 69.7094 5.17013 72.7122C5.72132 73.5327 6.82215 74.0175 7.92298 74.5023C8.58101 77.7223 8.88225 82.4176 13.3782 82.0369C16.3435 81.7858 17.8548 79.1529 18.831 75.8909C25.0569 75.4601 31.4791 72.7968 36.0498 68.7487C36.5038 68.4212 36.1844 68.0629 35.8261 68.3822ZM17.834 75.4937C14.948 75.5453 11.4639 75.3586 8.7758 74.3338C10.4085 73.1358 12.0332 71.8421 13.7454 70.4446C15.7365 68.9272 17.6319 67.4179 19.631 65.9962C18.9969 68.7475 18.5394 72.4473 17.834 75.4937ZM13.3377 81.5587C9.41569 81.8907 9.0512 77.5862 8.42557 74.7488C11.2174 75.8612 14.7972 76.0398 17.6831 75.9881C16.8739 78.947 15.6334 81.3643 13.3377 81.5587ZM5.99865 72.2567C5.20755 70.8785 6.25824 69.6334 7.11414 71.7769C7.36216 72.4303 7.61827 73.1793 7.77873 73.9365C6.86921 73.4355 6.46228 73.1809 5.99865 72.2567ZM22.4718 61.9982C22.8545 61.9658 22.8869 62.3485 22.8155 62.6435C22.6809 63.3293 21.5735 63.9048 21.032 64.336C21.3969 62.9563 21.8022 62.0549 22.4718 61.9982ZM63.9771 65.9985C60.8316 68.6735 56.3955 72.0358 52.0909 72.4003C50.1777 72.5622 48.7024 72.2055 47.681 71.5212C48.1739 70.516 49.0561 68.4181 49.1891 66.5763C49.4148 62.4144 44.64 62.9151 44.3106 66.9894C44.1694 68.7355 44.9216 70.7914 46.8525 71.9767C44.991 75.0247 41.766 77.899 37.844 78.2311C31.2437 78.79 35.4842 66.2916 41.0324 65.8218C42.3716 65.7084 42.8271 66.537 42.0391 67.4708C41.5138 68.0933 42.399 68.3074 42.733 67.7011C43.6799 66.3684 42.7137 65.1978 40.9919 65.3435C33.6263 65.9672 29.7536 79.3979 37.8845 78.7094C41.9978 78.3611 45.3104 75.383 47.2513 72.1356C48.464 72.8037 50.1226 73.0486 52.1314 72.8785C56.5316 72.5059 61.0634 69.1356 64.2008 66.365C64.6548 66.0375 64.3355 65.6792 63.9771 65.9985ZM45.4585 66.8922C45.6209 63.1211 48.938 63.6109 48.7108 66.6168C48.5697 68.363 47.6794 70.3652 47.274 71.2666C45.8295 70.1365 45.3887 68.3433 45.4585 66.8922ZM97.7391 63.1397C92.6268 67.619 87.3849 70.5678 80.4034 72.3151C76.9127 73.1888 73.3733 73.4885 70.5426 73.0537C70.3644 70.9493 69.7484 69.3636 68.7027 68.3924C66.3795 65.9878 62.326 69.3177 66.1084 71.8877C67.2335 72.6595 68.6213 73.1201 70.0967 73.4769L70.1048 73.5725C70.4531 77.6858 69.3923 83.3636 67.3669 89.0266C65.3334 94.5941 62.319 99.9555 58.8557 103.428C56.6262 105.544 54.2444 106.998 51.7573 107.209C41.2431 108.195 51.7848 85.9143 65.2154 65.8937L65.3987 65.7818C74.2107 61.76 91.6598 53.9238 95.7592 43.1716C96.8797 40.4754 98.5696 34.2627 93.4121 34.7957C79.7331 35.954 30.9282 109.261 51.7978 107.687C54.3806 107.468 56.858 106.006 59.175 103.786C62.726 100.21 65.7322 94.753 67.8614 89.1775C69.8868 83.5144 70.9394 77.741 70.5831 73.532C73.5095 73.9586 76.9532 73.6671 80.5396 72.7853C87.521 71.038 92.6754 68.193 98.0584 63.4981C98.5124 63.1706 98.193 62.8123 97.7391 63.1397ZM66.7456 71.4484C64.8779 69.8723 66.9955 67.5735 68.2649 68.9112C69.2068 69.7948 69.7985 71.0935 70.0481 72.9029C68.6765 72.6337 67.7669 72.1327 66.7456 71.4484ZM93.4526 35.274C98.2274 34.7734 96.2344 40.8191 95.2728 43.1164C91.141 53.486 74.2578 61.1779 65.7246 65.0798C76.0842 49.7511 88.1201 36.0146 93.4526 35.274ZM131.625 45.1445C129.137 44.1991 124.321 44.2214 118.973 44.7707C123.892 39.1516 126.477 34.4046 121.973 34.6896C117.652 34.8628 111.361 40.2127 106.044 46.8288C100.353 47.8888 95.157 49.0995 92.4153 49.7171C91.9451 49.8532 92.0813 50.3234 92.5515 50.1872C95.1975 49.5778 100.115 48.487 105.519 47.4514C96.836 58.6881 91.5933 73.0055 105.368 71.8391C111.681 71.3045 120.323 65.2738 124.99 61.2176C125.444 60.8902 125.029 60.5399 124.67 60.8593C120.092 64.8117 111.45 70.8424 105.327 71.3608C99.1097 71.8873 97.5503 68.2619 98.4764 63.27C101.361 62.0623 111.681 53.0956 118.36 45.497C123.995 44.9234 128.906 44.893 131.403 45.934C132.296 46.2438 132.718 45.5337 131.625 45.1445ZM98.611 62.5842C99.4754 59.139 102.8 52.8842 107.041 47.2261C110.453 46.5519 114.071 46.0528 117.411 45.6736C110.9 52.9691 101.217 61.4965 98.611 62.5842ZM118.12 44.9392C114.684 45.3265 111.065 45.8256 107.559 46.5079C112.063 40.5386 117.605 35.4448 122.005 35.0722C125.744 34.852 122.952 39.4239 118.12 44.9392ZM162.094 57.6904C158.957 60.461 155.842 62.3626 151.538 62.7271C149.433 62.9053 148.379 61.8384 147.979 60.5235L149.252 58.4888C150.659 55.7684 148.179 54.9186 147.258 57.6943C146.956 58.6832 146.862 59.8473 147.238 60.8753C145.352 63.6362 139.75 71.4327 136.306 71.7243C134.011 71.9187 136.159 63.1622 137.908 58.775C138.631 57.0759 137.053 57.7876 136.568 58.8884L136.576 58.9841C134.062 62.28 130.548 69.707 126.817 70.0229C122.895 70.355 124.781 61.9097 126.205 59.3806C126.873 58.1679 125.534 58.2813 125.112 58.9914C123.601 61.6243 121.309 70.971 126.857 70.5012C130.588 70.1853 133.363 64.2661 135.949 60.6751C134.241 65.5405 132.999 72.4861 136.347 72.2026C139.982 71.8948 145.505 64.2977 147.374 61.3454C148.053 62.5404 149.29 63.4954 151.586 63.301C156.082 62.9203 159.189 60.9231 162.414 58.0488C162.868 57.7213 162.548 57.363 162.094 57.6904ZM147.952 57.9245C148.531 55.6596 149.831 56.2239 148.749 58.2424C148.59 58.6412 148.248 59.1519 147.818 59.7663C147.762 59.0967 147.801 58.419 147.952 57.9245ZM192.191 55.142C188.328 58.4557 180.675 64.788 175.988 65.1849C172.066 65.517 174.617 59.2313 175.316 57.2453C176.023 55.3549 174.628 55.9547 174.247 57.1431L173.93 57.9407C173.158 59.0659 167.547 66.7667 161.904 67.2446C155.311 67.8991 163.391 52.9561 173.228 51.9305C178.967 51.4445 178.839 56.7543 177.796 58.095C177.446 58.5101 177.894 59.2429 178.323 58.6285C179.629 56.9765 179.397 50.8301 173.179 51.3566C161.509 52.3447 153.718 68.4195 161.944 67.7229C166.823 67.3098 171.655 61.7944 173.565 59.3204C172.843 62.1755 172.489 65.9629 176.029 65.6632C180.907 65.2501 188.56 58.9178 192.414 55.5084C192.868 55.181 192.549 54.8226 192.191 55.142ZM224.277 52.4251C219.077 57.0082 211.327 62.1926 204.185 63.1827C203.523 63.335 202.742 63.2085 202.319 62.7626C200.946 61.3374 202.271 56.5044 202.499 54.6545C202.855 52.0231 201.41 50.893 200.084 48.8857C201.047 47.7444 201.723 46.6273 202.121 45.6303C203.296 42.4477 199 42.9079 198.669 45.8262C198.567 46.8946 198.935 47.8269 199.494 48.743C197.097 51.1618 194.398 53.4136 191.69 55.5698C190.973 56.2085 192.185 55.7206 192.28 55.7125C194.797 53.5725 197.417 51.5201 199.734 49.3007C200.053 49.6591 200.277 50.0255 200.501 50.3919C201.483 51.7539 202.234 52.6538 201.797 54.3285C201.449 55.8996 200.893 57.2955 200.552 58.9622C199.958 62.1918 200.71 64.2476 204.321 63.6529C211.463 62.6627 219.309 57.4702 224.596 52.7834C225.05 52.4559 224.731 52.0976 224.277 52.4251ZM199.538 45.849C199.742 43.7121 202.572 42.9908 201.626 45.4794C201.316 46.3728 200.632 47.3941 199.852 48.4236C199.397 47.5951 199.419 46.7261 199.538 45.849ZM248.092 50.4085C242.709 55.1035 233.19 61.0157 225.848 61.9264C220.325 62.6831 221.41 57.2924 224.833 53.3415C227.042 54.4068 230.59 54.2028 232.589 52.781C235.138 51.0237 233.899 48.9127 231.029 49.1557C221.751 49.9414 216.356 63.5973 225.889 62.4047C233.326 61.4859 242.941 55.5655 248.316 50.775C248.77 50.4475 248.45 50.0892 248.092 50.4085ZM231.07 49.634C233.461 49.4315 234.356 50.8972 232.27 52.4227C230.445 53.6369 227.185 53.8167 225.191 53.0221C226.775 51.2501 228.878 49.9159 231.07 49.634ZM295.827 46.3665C290.444 51.0614 280.925 56.9737 273.584 57.8843C268.06 58.6411 269.145 53.2503 272.568 49.2995C274.778 50.3648 278.325 50.1608 280.324 48.739C282.873 46.9817 281.635 44.8707 278.765 45.1137C269.486 45.8994 264.091 59.5553 273.624 58.3626C281.061 57.4439 290.676 51.5235 296.051 46.7329C296.505 46.4055 296.186 46.0471 295.827 46.3665ZM278.805 45.592C281.197 45.3895 282.092 46.8552 280.005 48.3807C278.181 49.5949 274.92 49.7747 272.926 48.9801C274.51 47.2081 276.613 45.8739 278.805 45.592ZM327.301 43.7015C324.164 46.4721 319.528 49.7549 315.319 50.1113C306.909 50.9197 308.184 44.3568 303.306 44.7699C299.766 45.0696 296.402 50.846 294.133 53.6394C294.704 51.2788 296.165 46.916 297.143 44.81C297.628 43.7091 296.305 44.0138 296.067 44.6121C295.009 46.9175 293.788 51.8381 293.305 54.0949C293.019 55.2752 293.848 54.8197 294.286 54.3009C296.729 51.3 299.998 45.5316 303.346 45.2481C307.005 45.2273 305.651 51.9897 315.36 50.5896C319.664 50.2251 324.395 46.9342 327.525 44.0679C327.979 43.7404 327.659 43.3821 327.301 43.7015ZM357.73 41.1249C350.643 47.3129 344.9 51.1712 336.352 56.0378C338.442 51.14 339.999 46.769 340.8 43.7146C341.379 41.4496 340.144 41.6506 339.62 43.4291L339.094 44.0517C338.147 45.3843 332.704 52.782 327.156 53.2518C320.564 53.9063 328.644 38.9633 338.385 37.9458C344.22 37.4517 344.091 42.7615 343.049 44.1022C342.699 44.5172 343.05 45.2582 343.48 44.6438C344.881 42.9836 344.554 36.8453 338.336 37.3718C326.762 38.3519 318.97 54.4266 327.197 53.73C332.075 53.317 336.811 47.8097 338.817 45.3276L339.247 44.7132C338.271 47.9752 336.522 52.3623 334.416 57.0688L333.221 57.7481C325.494 62.0634 304.787 72.3913 305 82.8747C305.117 86.5259 307.845 88.0291 311.194 87.7456C319.811 87.1122 329.866 70.4605 335.93 56.7479C345.036 51.6414 350.245 48.31 358.049 41.4832C358.503 41.1558 358.088 40.8055 357.73 41.1249ZM311.153 87.2673C308.092 87.5265 305.571 86.1985 305.479 82.8342C305.298 72.7335 326.004 62.4056 333.453 58.2102L334.09 57.7708C328.176 70.9889 318.989 86.5074 311.153 87.2673ZM381.966 39.0727C376.583 43.7676 367.064 49.6799 359.722 50.5906C354.477 51.2274 355.792 45.1427 358.833 41.2242C359.533 40.3941 358.432 39.9093 357.915 40.6275C354.325 44.8816 353.569 51.8823 359.763 51.0688C367.295 50.142 376.814 44.2297 382.285 39.4311C382.739 39.1036 382.324 38.7533 381.966 39.0727ZM361.1 37.2749C361.721 36.6442 362.453 36.1968 363.194 35.845C364.955 35.0215 363.002 34.7052 362.356 35.0489C361.424 35.4169 361.002 36.127 360.597 37.0284C360.518 37.2278 360.749 37.6899 361.1 37.2749ZM413.43 36.4084C410.293 39.179 405.657 42.4619 401.448 42.8182C393.039 43.6267 394.313 37.0637 389.435 37.4768C385.896 37.7765 382.531 43.553 380.263 46.3464C380.833 43.9858 382.295 39.6229 383.272 37.5169C383.757 36.4161 382.434 36.7208 382.196 37.3191C381.139 39.6245 379.917 44.5451 379.434 46.8019C379.149 47.9822 379.977 47.5266 380.415 47.0079C382.858 44.007 386.127 38.2386 389.475 37.9551C393.135 37.9343 391.78 44.6967 401.489 43.2965C405.794 42.932 410.525 39.6411 413.654 36.7749C414.108 36.4474 413.789 36.0891 413.43 36.4084ZM437.259 34.3907C431.876 39.0857 422.357 44.9979 415.015 45.9086C409.491 46.6653 410.576 41.2746 413.999 37.3237C416.209 38.389 419.757 38.185 421.756 36.7633C424.305 35.0059 423.066 32.8949 420.196 33.1379C410.917 33.9236 405.522 47.5795 415.056 46.3869C422.493 45.4681 432.108 39.5478 437.483 34.7572C437.937 34.4297 437.617 34.0714 437.259 34.3907ZM420.237 33.6162C422.628 33.4137 423.523 34.8794 421.436 36.4049C419.612 37.6192 416.352 37.7989 414.358 37.0043C415.942 35.2323 418.045 33.8982 420.237 33.6162ZM461.08 32.3737C455.697 37.0686 446.178 42.9809 438.836 43.8915C433.312 44.6483 434.397 39.2575 437.82 35.3066C440.03 36.372 443.578 36.168 445.577 34.7462C448.126 32.9889 446.887 30.8779 444.017 31.1209C434.738 31.9065 429.343 45.5624 438.877 44.3698C446.314 43.4511 455.929 37.5307 461.304 32.7401C461.758 32.4127 461.438 32.0543 461.08 32.3737ZM444.058 31.5991C446.449 31.3966 447.344 32.8624 445.257 34.3879C443.433 35.6021 440.173 35.7818 438.179 34.9873C439.763 33.2153 441.866 31.8811 444.058 31.5991ZM493.127 29.6601C487.928 34.2431 480.177 39.4275 473.035 40.4176C472.374 40.57 471.592 40.4435 471.169 39.9976C469.796 38.5724 471.121 33.7393 471.35 31.8895C471.705 29.2581 470.261 28.1279 468.934 26.1207C469.898 24.9793 470.574 23.8623 470.971 22.8652C472.147 19.6827 467.85 20.1428 467.519 23.0612C467.417 24.1296 467.785 25.0619 468.344 25.978C465.948 28.3968 463.248 30.6486 460.541 32.8047C459.824 33.4435 461.035 32.9556 461.131 32.9475C463.647 30.8075 466.267 28.7551 468.584 26.5357C468.904 26.894 469.127 27.2605 469.351 27.6269C470.333 28.9889 471.084 29.8887 470.648 31.5635C470.299 33.1345 469.743 34.5304 469.402 36.1971C468.809 39.4267 469.561 41.4826 473.172 40.8878C480.313 39.8977 488.159 34.7052 493.447 30.0184C493.901 29.6909 493.581 29.3326 493.127 29.6601ZM468.388 23.0839C468.593 20.9471 471.422 20.2258 470.477 22.7144C470.167 23.6077 469.483 24.6291 468.703 25.6586C468.247 24.8301 468.27 23.961 468.388 23.0839Z" fill="black"/>
</svg>
